<?xml version="1.0" encoding="UTF-8"?>
<svg xmlns="http://www.w3.org/2000/svg" xmlns:xlink="http://www.w3.org/1999/xlink" width="192pt" height="192pt" viewBox="0 0 192 192" version="1.1">
<g id="surface9396304">
<path style=" stroke:none;fill-rule:nonzero;fill:rgb(100%,100%,100%);fill-opacity:1;" d="M 152 24 L 40 24 C 31.160156 24 24 31.160156 24 40 L 24 152 C 24 160.839844 31.160156 168 40 168 L 152 168 C 160.839844 168 168 160.839844 168 152 L 168 40 C 168 31.160156 160.839844 24 152 24 Z M 61.902344 136 C 56.328125 136 51.808594 131.480469 51.808594 125.902344 L 51.808594 90.089844 C 51.816406 84.519531 56.335938 80 61.902344 80 C 67.480469 80 72 84.519531 72 90.097656 L 72 125.910156 C 72 131.480469 67.480469 136 61.902344 136 Z M 61.550781 69.734375 C 55.382812 69.734375 51.265625 65.625 51.265625 60.136719 C 51.265625 54.648438 55.375 50.535156 62.230469 50.535156 C 68.398438 50.535156 72.519531 54.648438 72.519531 60.136719 C 72.519531 65.625 68.40625 69.734375 61.550781 69.734375 Z M 134.230469 136 C 128.839844 136 124.464844 131.625 124.464844 126.230469 L 124.464844 105.390625 C 124.464844 96.929688 119.257812 96 117.304688 96 C 115.351562 96 108.839844 96.28125 108.839844 105.390625 L 108.839844 126.230469 C 108.839844 131.625 104.464844 136 99.070312 136 L 98.425781 136 C 93.03125 136 88.65625 131.625 88.65625 126.230469 L 88.65625 90.097656 C 88.65625 84.519531 93.175781 80 98.753906 80 C 104.328125 80 108.847656 84.519531 108.847656 90.097656 C 108.847656 90.097656 111.105469 80 126.433594 80 C 136.183594 80 144 87.816406 144 105.390625 L 144 126.230469 C 144 131.625 139.625 136 134.230469 136 Z M 134.230469 136 "/>
</g>
</svg>
