<?xml version="1.0" encoding="UTF-8"?>
<svg xmlns="http://www.w3.org/2000/svg" xmlns:xlink="http://www.w3.org/1999/xlink" width="256pt" height="256pt" viewBox="0 0 256 256" version="1.1">
<g id="surface9395405">
<path style=" stroke:none;fill-rule:nonzero;fill:rgb(100%,100%,100%);fill-opacity:1;" d="M 123.9375 32 C 81.609375 32 40 65.84375 40 115.515625 C 40 172.453125 95.75 209.589844 145.71875 195.75 C 154.085938 210.015625 165.109375 224 186.125 224 C 220.851562 224 224 192 224 184 L 211.5625 184 C 210.921875 189.726562 207.019531 195.65625 197.46875 195.65625 C 188.765625 195.65625 182.484375 189.636719 176.453125 180.46875 C 195.222656 165.949219 207.59375 143.308594 207.59375 115.5 C 207.632812 65.621094 167.152344 32 123.9375 32 Z M 123.9375 48 C 156.289062 48 170.09375 71.277344 170.09375 115.515625 C 170.132812 133.257812 167.785156 147.605469 162.984375 158.171875 C 154.703125 145.773438 144.4375 136.015625 124.140625 136.015625 C 111.1875 136.015625 102.339844 139.785156 96.09375 145.21875 L 101.265625 155.546875 C 103.898438 154.273438 105.550781 154.3125 108.4375 154.3125 C 123.507812 154.3125 131.238281 167.398438 137.8125 180.34375 C 133.566406 181.617188 129.011719 182.125 123.921875 182.125 C 92.082031 182.125 78.28125 159.617188 78.28125 115.59375 C 78.289062 71.265625 92.097656 48 123.9375 48 Z M 123.9375 48 "/>
</g>
</svg>
