<?xml version="1.0" encoding="UTF-8"?>
<svg xmlns="http://www.w3.org/2000/svg" xmlns:xlink="http://www.w3.org/1999/xlink" width="144pt" height="144pt" viewBox="0 0 144 144" version="1.1">
<g id="surface9390456">
<path style=" stroke:none;fill-rule:nonzero;fill:rgb(100%,100%,100%);fill-opacity:1;" d="M 132 72 C 132 98.878906 114.359375 121.621094 90 129.238281 L 90 114 C 90 108.871094 87.839844 104.28125 84.421875 100.980469 C 100.140625 98.128906 108 88.980469 108 72 C 108 64.648438 106.5 58.828125 103.558594 54.300781 C 104.878906 49.171875 105.660156 41.878906 102 36 C 94.921875 36 89.96875 40.171875 87.058594 43.589844 C 82.710938 42.539062 77.699219 42 72 42 C 66.601562 42 61.621094 42.601562 57.179688 43.828125 C 54.300781 40.378906 49.261719 36 42 36 C 37.738281 42.839844 39.480469 50.21875 41.101562 54.359375 C 37.859375 58.890625 36 64.710938 36 72 C 36 88.980469 43.859375 98.128906 59.578125 100.980469 C 57.570312 102.929688 56.011719 105.300781 55.050781 108 L 48 108 C 43.679688 108 42 106.078125 39.691406 102.960938 C 37.378906 99.839844 34.890625 97.738281 31.921875 96.871094 C 30.328125 96.691406 29.25 97.980469 30.660156 99.121094 C 35.371094 102.511719 35.699219 108.058594 37.589844 111.691406 C 39.300781 114.960938 42.839844 117 46.828125 117 L 54 117 L 54 129.238281 C 29.640625 121.621094 12 98.878906 12 72 C 12 38.851562 38.851562 12 72 12 C 105.148438 12 132 38.851562 132 72 Z M 132 72 "/>
</g>
</svg>
